# xmcd CD database file
#
# Track frame offsets:
#	150
#	14091
#	32287
#	51267
#	69091
#	73663
#	88509
#	106712
#	121596
#	135872
#	139713
#	161002
#	179097
#	196562
#	212385
#
# Disc length: 2883 seconds
#
# Revision: 0
# Processed by: cddbd v1.5.2PL0 Copyright (c) Steve Scherf et al.
# Submitted via: CDex 1.70beta2
#
DISCID=bb0b410f
DTITLE=Groanbox Boys - Smokestack Trilogy
DYEAR=2006
DGENRE=Blues
TTITLE0=Train Take My Pain Away
TTITLE1=Sea Bone Howl 
TTITLE2=Hobo Heaven
TTITLE3=Mount Pleasant Rooftop
TTITLE4=Harefield Hospital Rag
TTITLE5=Lonsome Traveller
TTITLE6=Home Again
TTITLE7=Juliette Red Dress
TTITLE8=Wham Bam
TTITLE9=Harefield Hospital Special
TTITLE10=Broken Down Bolivian Blues
TTITLE11=Last Call
TTITLE12=Bygone Era
TTITLE13=I'm Mississippi Bound
TTITLE14=Harefield Hospital Lament
EXTD=YEAR: 2006
EXTT0=
EXTT1=
EXTT2=
EXTT3=
EXTT4=
EXTT5=
EXTT6=
EXTT7=
EXTT8=
EXTT9=
EXTT10=
EXTT11=
EXTT12=
EXTT13=
EXTT14=
PLAYORDER=
